<svg width="32" height="32" viewBox="0 0 32 32" fill="none" xmlns="http://www.w3.org/2000/svg">
<path d="M3.14359 8.57735L16 1.1547L28.8564 8.57735V23.4226L16 30.8453L3.14359 23.4226V8.57735Z" fill="#1A1A1D" stroke="#E53358" stroke-width="2"/>
<path d="M6.66103 10.6307L16.0533 5.20801L25.4456 10.6307V21.476L16.0533 26.8986L6.66103 21.476V10.6307Z" fill="#1A1A1D" stroke="#E53358" stroke-width="2"/>
<path d="M10.0718 12.5774L16 9.1547L21.9282 12.5774V19.4227L16 22.8453L10.0718 19.4227V12.5774Z" fill="#1A1A1D" stroke="#E53358" stroke-width="2"/>
<circle cx="16.0533" cy="16.0533" r="4" fill="#E53358"/>
<path d="M17.0996 17.5H15.2363V17.2402L16.2207 16.1465C16.3665 15.9811 16.4668 15.847 16.5215 15.7441C16.5775 15.64 16.6055 15.5326 16.6055 15.4219C16.6055 15.2734 16.5605 15.1517 16.4707 15.0566C16.3809 14.9616 16.2611 14.9141 16.1113 14.9141C15.9316 14.9141 15.7917 14.9655 15.6914 15.0684C15.5924 15.1699 15.543 15.3118 15.543 15.4941H15.1816C15.1816 15.2324 15.2656 15.0208 15.4336 14.8594C15.6029 14.6979 15.8288 14.6172 16.1113 14.6172C16.3757 14.6172 16.5846 14.6868 16.7383 14.8262C16.8919 14.9642 16.9688 15.1484 16.9688 15.3789C16.9688 15.6589 16.7904 15.9922 16.4336 16.3789L15.6719 17.2051H17.0996V17.5Z" fill="black"/>
</svg>
