<svg width="32" height="32" viewBox="0 0 32 32" fill="none" xmlns="http://www.w3.org/2000/svg">
<path d="M3.14359 8.57735L16 1.1547L28.8564 8.57735V23.4226L16 30.8453L3.14359 23.4226V8.57735Z" fill="#1A1A1D" stroke="#E53358" stroke-width="2"/>
<path d="M18.5488 20H12.959V19.2207L15.9121 15.9395C16.3496 15.4434 16.6504 15.041 16.8145 14.7324C16.9824 14.4199 17.0664 14.0977 17.0664 13.7656C17.0664 13.3203 16.9316 12.9551 16.6621 12.6699C16.3926 12.3848 16.0332 12.2422 15.584 12.2422C15.0449 12.2422 14.625 12.3965 14.3242 12.7051C14.0273 13.0098 13.8789 13.4355 13.8789 13.9824H12.7949C12.7949 13.1973 13.0469 12.5625 13.5508 12.0781C14.0586 11.5938 14.7363 11.3516 15.584 11.3516C16.377 11.3516 17.0039 11.5605 17.4648 11.9785C17.9258 12.3926 18.1562 12.9453 18.1562 13.6367C18.1562 14.4766 17.6211 15.4766 16.5508 16.6367L14.2656 19.1152H18.5488V20Z" fill="#E53358"/>
</svg>
